<svg width="64" height="64" viewBox="0 0 64 64" fill="none" xmlns="http://www.w3.org/2000/svg">
<path d="M13.7371 55.7388L43.7481 44.9032L18.9957 20.123L8.25961 50.2428C7.04053 53.6645 10.3335 56.9673 13.7371 55.7388Z" fill="#46AF5F"/>
<path d="M19.1356 13.7318C20.4637 13.7318 21.5403 12.6502 21.5403 11.3161C21.5403 9.98193 20.4637 8.90039 19.1356 8.90039C17.8076 8.90039 16.731 9.98193 16.731 11.3161C16.731 12.6502 17.8076 13.7318 19.1356 13.7318Z" fill="#E9F4EC"/>
<path d="M44.8452 44.2447C47.4242 41.6539 43.879 33.8921 36.9268 26.9081C29.9747 19.9242 22.2481 16.3628 19.6692 18.9535C17.0902 21.5443 20.6354 29.3061 27.5875 36.2901C34.5397 43.2741 42.2662 46.8354 44.8452 44.2447Z" fill="#013E28"/>
<path d="M27.7703 25.5585C27.6248 25.5585 27.4755 25.5378 27.3275 25.4964C26.4727 25.252 25.9784 24.3571 26.2217 23.4984C26.9889 20.7995 26.9477 17.9493 26.1019 15.2556C25.8342 14.4034 26.3053 13.4969 27.1524 13.2279C27.9994 12.9589 28.9031 13.4309 29.1709 14.2831C30.2072 17.5821 30.2574 21.0763 29.3163 24.3855C29.1142 25.0955 28.4719 25.5585 27.7703 25.5585Z" fill="#016743"/>
<path d="M43.6096 30.2788C43.1114 30.2788 42.6197 30.0473 42.3056 29.6102C41.7842 28.8873 41.9451 27.8773 42.6647 27.3523C46.0684 24.8746 50.0989 23.4663 54.3213 23.2813C55.216 23.2723 55.96 23.9344 55.9999 24.8254C56.0386 25.7177 55.3499 26.4716 54.4629 26.5117C50.8713 26.6695 47.4458 27.8657 44.5532 29.971C44.2674 30.1792 43.9379 30.2788 43.6109 30.2788H43.6096Z" fill="#46AF5F"/>
<path d="M50.0572 38.4367C49.8525 38.4367 49.644 38.3966 49.4419 38.3126C48.3606 37.8626 47.2329 37.516 46.0897 37.2819C42.52 36.55 38.8448 36.9056 35.4617 38.3126C34.6366 38.6527 33.6981 38.2622 33.3596 37.4384C33.0197 36.6133 33.4098 35.668 34.2298 35.3266C38.2089 33.6713 42.5342 33.2523 46.7334 34.1149C48.0773 34.3903 49.4033 34.7977 50.6738 35.3266C51.4951 35.668 51.8852 36.6133 51.5453 37.4384C51.2892 38.0604 50.688 38.4367 50.0572 38.4367Z" fill="#90CF9F"/>
<path d="M33.2948 30.4252C32.8121 30.4252 32.3332 30.2079 32.0165 29.7928C31.4759 29.0855 31.6085 28.0703 32.3139 27.5272C36.1848 24.5438 38.6668 20.2245 39.304 15.3647C39.4198 14.4802 40.2295 13.8555 41.1088 13.9732C41.9906 14.0896 42.6111 14.9017 42.4939 15.7863C41.7447 21.5022 38.8251 26.5818 34.2719 30.0916C33.9797 30.3166 33.6373 30.4252 33.2948 30.4252Z" fill="#22A35B"/>
<path d="M26.0524 33.2264L26.053 30.7991C26.0531 30.2941 25.6457 29.8847 25.1431 29.8845L22.7268 29.8839C22.2242 29.8838 21.8166 30.2931 21.8165 30.798L21.8159 33.2253C21.8158 33.7303 22.2231 34.1397 22.7258 34.1398L25.1421 34.1404C25.6447 34.1406 26.0523 33.7313 26.0524 33.2264Z" fill="white"/>
<path d="M36.2014 8.42169L33.9946 9.53987C33.5356 9.77242 33.3512 10.3347 33.5827 10.7957L34.6958 13.0126C34.9273 13.4737 35.487 13.6589 35.946 13.4264L38.1528 12.3082C38.6117 12.0756 38.7961 11.5134 38.5646 11.0523L37.4515 8.83542C37.22 8.37438 36.6603 8.18914 36.2014 8.42169Z" fill="#90CF9F"/>
<path d="M53.8653 45.726L54.614 43.3598C54.7698 42.8677 54.4989 42.3419 54.009 42.1855L51.6535 41.4333C51.1637 41.2769 50.6403 41.549 50.4846 42.0412L49.7358 44.4074C49.5801 44.8995 49.851 45.4253 50.3409 45.5817L52.6964 46.3339C53.1862 46.4903 53.7096 46.2182 53.8653 45.726Z" fill="#B5DFBF"/>
<path d="M48.9747 21.3001C50.044 21.3001 50.9108 20.4293 50.9108 19.3551C50.9108 18.2809 50.044 17.4102 48.9747 17.4102C47.9054 17.4102 47.0386 18.2809 47.0386 19.3551C47.0386 20.4293 47.9054 21.3001 48.9747 21.3001Z" fill="#E9F4EC"/>
<path d="M10.3145 29.7337C11.3838 29.7337 12.2506 28.8629 12.2506 27.7887C12.2506 26.7145 11.3838 25.8438 10.3145 25.8438C9.24524 25.8438 8.37842 26.7145 8.37842 27.7887C8.37842 28.8629 9.24524 29.7337 10.3145 29.7337Z" fill="#B5DFBF"/>
<path d="M37.4238 55.0957C38.6715 55.0957 39.683 54.0796 39.683 52.8262C39.683 51.5728 38.6715 50.5566 37.4238 50.5566C36.176 50.5566 35.1646 51.5728 35.1646 52.8262C35.1646 54.0796 36.176 55.0957 37.4238 55.0957Z" fill="#E9F4EC"/>
</svg>
