<svg width="236" height="38" viewBox="0 0 236 38" fill="none" xmlns="http://www.w3.org/2000/svg">
<path d="M147.003 10.2379V12.162H132.742V10.2379H147.003ZM146.664 16.6347C146.664 17.2897 146.487 17.8734 146.138 18.379C145.788 18.8847 145.303 19.3089 144.687 19.6414C144.071 19.9774 143.351 20.2319 142.531 20.4016C141.711 20.5746 140.821 20.6595 139.862 20.6595C138.903 20.6595 138.007 20.5746 137.169 20.4016C136.332 20.2285 135.608 19.9774 135.002 19.6414C134.393 19.3055 133.916 18.8847 133.566 18.379C133.216 17.8734 133.04 17.2897 133.04 16.6347C133.04 15.9798 133.213 15.3791 133.566 14.8769C133.916 14.378 134.393 13.9606 135.002 13.6247C135.612 13.2887 136.335 13.041 137.169 12.8747C138.007 12.7118 138.903 12.627 139.862 12.627C140.821 12.627 141.711 12.7118 142.531 12.8849C143.351 13.0579 144.071 13.3091 144.687 13.645C145.303 13.981 145.785 14.3984 146.138 14.8972C146.487 15.3961 146.664 15.9764 146.664 16.6313V16.6347ZM136.006 28.9398C135.612 28.9398 135.311 28.8244 135.106 28.5936C134.902 28.3629 134.798 28.0676 134.798 27.7113V21.3348H139.613V23.1232H148.786V21.3348H153.6V28.9398H136.006ZM137.422 10.7503V8.82617H142.237V10.7503H137.422ZM137.855 16.6347C137.855 17.3508 138.045 17.8802 138.426 18.2229C138.806 18.5657 139.284 18.7387 139.862 18.7387C140.409 18.7387 140.876 18.5691 141.264 18.2229C141.652 17.8802 141.846 17.3508 141.846 16.6347C141.846 15.9187 141.652 15.4266 141.264 15.0703C140.876 14.7106 140.409 14.5341 139.862 14.5341C139.284 14.5341 138.803 14.714 138.426 15.0703C138.045 15.4266 137.855 15.9492 137.855 16.6347ZM148.786 26.9477V25.0677H139.613V26.9477H148.786ZM149.377 19.2308H146.158V17.2863H149.377V19.2308ZM149.402 15.3146H146.207V13.3701H149.402V15.3146ZM148.786 9.05015H153.6V20.6595H148.786V9.05015Z" fill="#E60013"/>
<path d="M176.19 18.4726V20.4408H155.152V18.4726H176.19ZM175.529 25.4056C175.529 26.0605 175.304 26.6408 174.858 27.1397C174.408 27.6385 173.764 28.0627 172.92 28.4157C172.075 28.7652 171.043 29.0299 169.829 29.2097C168.61 29.3896 167.236 29.4778 165.699 29.4778C164.162 29.4778 162.788 29.3896 161.58 29.2097C160.372 29.0299 159.344 28.7652 158.499 28.4157C157.655 28.0661 157.008 27.6385 156.561 27.1397C156.111 26.6408 155.89 26.0605 155.89 25.4056C155.89 24.7506 156.115 24.1669 156.561 23.6613C157.011 23.1557 157.655 22.7247 158.499 22.3751C159.344 22.0256 160.372 21.7609 161.58 21.581C162.788 21.4012 164.162 21.313 165.699 21.313C167.236 21.313 168.614 21.4012 169.829 21.581C171.047 21.7609 172.075 22.0256 172.92 22.3751C173.764 22.7247 174.411 23.1557 174.858 23.6613C175.308 24.1703 175.529 24.7506 175.529 25.4056ZM157.523 16.7724C157.129 16.7724 156.828 16.657 156.623 16.4262C156.419 16.1955 156.315 15.907 156.315 15.5643V9.5H175.027V11.492H161.13V14.8041H175.142V16.7724H157.527H157.523ZM160.697 25.4056C160.697 25.9587 161.123 26.4406 161.975 26.8614C162.826 27.2788 164.065 27.4892 165.696 27.4892C167.326 27.4892 168.607 27.2788 169.448 26.8614C170.292 26.444 170.715 25.9587 170.715 25.4056C170.715 24.8524 170.289 24.3638 169.437 23.9396C168.586 23.5154 167.34 23.3016 165.696 23.3016C164.051 23.3016 162.83 23.5154 161.975 23.9396C161.123 24.3638 160.697 24.8524 160.697 25.4056ZM163.366 18.7848V16.3007H168.409V18.7848H163.366Z" fill="#E60013"/>
<path d="M187.772 17.1084C187.27 17.8109 186.65 18.4557 185.913 19.0428C185.176 19.6332 184.383 20.1423 183.539 20.5767C182.694 21.0076 181.836 21.3572 180.96 21.6185C180.084 21.8798 179.26 22.0325 178.485 22.0766L177.457 20.4647C178.703 20.3018 179.821 19.9387 180.811 19.3787C181.801 18.8188 182.628 18.1435 183.3 17.3528C183.968 16.5621 184.484 15.6967 184.84 14.7567C185.197 13.8167 185.377 12.8767 185.377 11.9367V10.0566H190.191V11.9367C190.191 12.8767 190.371 13.8167 190.728 14.7567C191.084 15.6967 191.607 16.5621 192.292 17.3528C192.978 18.1435 193.809 18.8188 194.792 19.3787C195.771 19.9387 196.886 20.2984 198.135 20.4647L197.107 22.0766C196.332 22.0325 195.501 21.8798 194.618 21.6185C193.736 21.3572 192.874 21.0076 192.029 20.5665C191.185 20.1253 190.389 19.6129 189.644 19.0224C188.9 18.4319 188.274 17.7973 187.772 17.1084Z" fill="#E60013"/>
<path d="M198.213 26.0098H177.379V28.0459H198.213V26.0098Z" fill="#E60013"/>
<path d="M196.953 9.61133H178.629V11.6475H196.953V9.61133Z" fill="#E60013"/>
<path d="M190.313 21.916H185.27V26.5686H190.313V21.916Z" fill="#E60013"/>
<path d="M213.403 10.2379V12.162H199.004V10.2379H213.403ZM213.06 16.6347C213.06 17.2897 212.88 17.8734 212.524 18.379C212.167 18.8847 211.679 19.3089 211.063 19.6414C210.447 19.9774 209.717 20.2319 208.872 20.4016C208.028 20.5746 207.128 20.6595 206.169 20.6595C205.21 20.6595 204.289 20.5746 203.452 20.4016C202.614 20.2285 201.887 19.9774 201.271 19.6414C200.655 19.3055 200.17 18.8847 199.821 18.379C199.471 17.8734 199.295 17.2897 199.295 16.6347C199.295 15.9798 199.468 15.3791 199.821 14.8769C200.17 14.378 200.655 13.9606 201.271 13.6247C201.887 13.2887 202.614 13.041 203.452 12.8747C204.289 12.7118 205.193 12.627 206.169 12.627C207.145 12.627 208.028 12.7118 208.872 12.8849C209.717 13.0579 210.447 13.3091 211.063 13.645C211.679 13.981 212.167 14.3984 212.524 14.8972C212.88 15.3961 213.06 15.9764 213.06 16.6313V16.6347ZM201.721 28.9398C201.326 28.9398 201.025 28.8244 200.821 28.5936C200.617 28.3629 200.513 28.0676 200.513 27.7113V21.3348H205.328V23.1232H214.48V21.3348H219.294V28.9398H201.725H201.721ZM203.749 10.7503V8.82617H208.564V10.7503H203.749ZM204.116 16.6347C204.116 17.3508 204.314 17.8802 204.708 18.2229C205.103 18.5657 205.591 18.7387 206.169 18.7387C206.747 18.7387 207.238 18.5691 207.64 18.2229C208.042 17.8802 208.246 17.3508 208.246 16.6347C208.246 15.9187 208.045 15.4266 207.64 15.0703C207.235 14.7106 206.747 14.5341 206.169 14.5341C205.591 14.5341 205.103 14.714 204.708 15.0703C204.314 15.4266 204.116 15.9492 204.116 16.6347ZM214.476 26.9477V25.0677H205.324V26.9477H214.476ZM219.291 20.6629H214.476V9.05354H219.291V20.6629ZM218.401 13.9063H221.596V16.1427H218.401V13.9063Z" fill="#E60013"/>
<path d="M66.5897 19.9254V17.9775H87.6279V19.9254H66.5897ZM87.081 12.9245C87.081 13.5794 86.8525 14.1699 86.3956 14.6925C85.9387 15.2151 85.2845 15.6529 84.433 16.0126C83.5815 16.3689 82.5397 16.6472 81.3074 16.8406C80.0752 17.0341 78.6768 17.1325 77.1088 17.1325C75.5408 17.1325 74.1666 17.0341 72.9344 16.8406C71.7022 16.6472 70.6603 16.3723 69.8088 16.0126C68.9573 15.6563 68.3066 15.2151 67.8566 14.6925C67.4066 14.1699 67.1851 13.5828 67.1851 12.9245C67.1851 12.2661 67.4101 11.6791 67.8566 11.1564C68.3066 10.6338 68.9538 10.1961 69.8088 9.83635C70.6603 9.48003 71.7022 9.20515 72.9344 9.01851C74.1666 8.83186 75.5581 8.74023 77.1088 8.74023C78.6595 8.74023 80.0752 8.83865 81.3074 9.03208C82.5397 9.22551 83.5815 9.50039 84.433 9.86011C85.2845 10.2164 85.9387 10.6542 86.3956 11.17C86.8525 11.6858 87.081 12.2695 87.081 12.9279V12.9245ZM68.9642 28.9421C68.5696 28.9421 68.2685 28.8267 68.0643 28.5959C67.86 28.3651 67.7562 28.0699 67.7562 27.7136V24.113H81.6743V23.1289H67.7562V21.1844H86.4891V25.9727H72.571V26.9568H86.6033V28.9488H68.9642V28.9421ZM71.9756 12.9245C71.9756 13.2231 72.0898 13.5048 72.3183 13.7763C72.5467 14.0444 72.879 14.2887 73.3117 14.5025C73.7444 14.7197 74.2809 14.8894 74.9212 15.0183C75.5616 15.1439 76.2919 15.2083 77.1123 15.2083C77.9326 15.2083 78.6906 15.1439 79.3379 15.0183C79.9852 14.8927 80.5252 14.7197 80.9578 14.5025C81.3905 14.2853 81.7193 14.0444 81.9374 13.7763C82.1589 13.5082 82.2697 13.2231 82.2697 12.9245C82.2697 12.6259 82.1589 12.3612 81.9374 12.0863C81.7159 11.8114 81.3905 11.5671 80.9578 11.3601C80.5252 11.1497 79.9852 10.9834 79.3379 10.8578C78.6906 10.7322 77.9499 10.6678 77.1123 10.6678C76.2746 10.6678 75.5616 10.7322 74.9212 10.8578C74.2809 10.9834 73.7478 11.153 73.3117 11.3601C72.879 11.5705 72.5467 11.808 72.3183 12.0761C72.0898 12.3442 71.9756 12.6292 71.9756 12.9279V12.9245ZM79.6425 19.5453V21.6493H74.5993V19.5453H79.6425Z" fill="#E60013"/>
<path d="M88.8358 23.9729V21.9367H109.67V23.9729H88.8358ZM99.2407 20.4605C97.8111 20.4605 96.4923 20.3214 95.2809 20.0465C94.0729 19.7716 93.031 19.3848 92.1553 18.8825C91.2795 18.3837 90.6011 17.783 90.1131 17.0806C89.625 16.3815 89.3827 15.5976 89.3827 14.7322C89.3827 13.8669 89.625 13.1033 90.1131 12.3941C90.6011 11.6848 91.2795 11.0808 92.1553 10.5819C93.031 10.0831 94.0729 9.69619 95.2809 9.41792C96.4889 9.14304 97.8111 9.00391 99.2407 9.00391C100.67 9.00391 101.989 9.14304 103.2 9.41792C104.408 9.6928 105.457 10.0831 106.336 10.5819C107.219 11.0808 107.904 11.6848 108.389 12.3941C108.877 13.1033 109.119 13.8804 109.119 14.7322C109.119 15.584 108.877 16.3815 108.389 17.0806C107.901 17.783 107.219 18.3837 106.336 18.8825C105.454 19.3814 104.408 19.7716 103.2 20.0465C101.992 20.3214 100.67 20.4605 99.2407 20.4605ZM99.2407 18.4278C100.002 18.4278 100.694 18.343 101.317 18.1699C101.941 17.9968 102.474 17.7525 102.913 17.4301C103.353 17.1077 103.695 16.7208 103.941 16.2661C104.183 15.8114 104.305 15.3023 104.305 14.7322C104.305 14.1621 104.183 13.6565 103.941 13.1983C103.699 12.7436 103.356 12.3567 102.913 12.0343C102.47 11.7154 101.941 11.4676 101.317 11.2946C100.694 11.1215 100.002 11.0366 99.2407 11.0366C98.4792 11.0366 97.7904 11.1215 97.1742 11.2946C96.5581 11.4676 96.0285 11.712 95.5889 12.0343C95.1459 12.3567 94.8067 12.7436 94.5609 13.1983C94.3186 13.6531 94.1975 14.1655 94.1975 14.7322C94.1975 15.2989 94.3186 15.8114 94.5609 16.2661C94.8032 16.7208 95.1459 17.1077 95.5889 17.4301C96.0285 17.7525 96.5581 17.9968 97.1742 18.1699C97.7904 18.343 98.4792 18.4278 99.2407 18.4278ZM101.774 23.6165V28.941H96.7312V23.6165H101.774Z" fill="#E60013"/>
<path d="M110.973 23.9729V21.9367H131.806V23.9729H110.973ZM121.377 20.4605C119.948 20.4605 118.629 20.3214 117.418 20.0465C116.21 19.7716 115.168 19.3848 114.292 18.8825C113.416 18.3837 112.738 17.783 112.25 17.0806C111.762 16.3815 111.519 15.5976 111.519 14.7322C111.519 13.8669 111.762 13.1033 112.25 12.3941C112.738 11.6848 113.416 11.0808 114.292 10.5819C115.168 10.0831 116.21 9.69619 117.418 9.41792C118.626 9.14304 119.948 9.00391 121.377 9.00391C122.807 9.00391 124.126 9.14304 125.337 9.41792C126.545 9.6928 127.591 10.0831 128.473 10.5819C129.356 11.0808 130.041 11.6848 130.526 12.3941C131.014 13.1033 131.256 13.8804 131.256 14.7322C131.256 15.584 131.014 16.3815 130.526 17.0806C130.038 17.783 129.356 18.3837 128.473 18.8825C127.591 19.3814 126.545 19.7716 125.337 20.0465C124.129 20.3214 122.807 20.4605 121.377 20.4605ZM119.141 23.5046V28.941H114.188V23.5046H119.141ZM121.377 18.4278C122.139 18.4278 122.831 18.343 123.454 18.1699C124.077 17.9968 124.61 17.7525 125.05 17.4301C125.489 17.1077 125.832 16.7208 126.078 16.2661C126.32 15.8114 126.441 15.3023 126.441 14.7322C126.441 14.1621 126.32 13.6565 126.078 13.1983C125.836 12.7436 125.493 12.3567 125.05 12.0343C124.607 11.7154 124.077 11.4676 123.454 11.2946C122.831 11.1215 122.139 11.0366 121.377 11.0366C120.616 11.0366 119.927 11.1215 119.311 11.2946C118.695 11.4676 118.165 11.712 117.726 12.0343C117.286 12.3567 116.943 12.7436 116.698 13.1983C116.455 13.6531 116.334 14.1655 116.334 14.7322C116.334 15.2989 116.455 15.8114 116.698 16.2661C116.94 16.7208 117.283 17.1077 117.726 17.4301C118.165 17.7525 118.695 17.9968 119.311 18.1699C119.927 18.343 120.616 18.4278 121.377 18.4278ZM128.587 23.5046V28.941H123.634V23.5046H128.587Z" fill="#E60013"/>
<path d="M53.5302 15.1782C53.5302 19.4982 55.1639 24.0252 59.1445 26.3226L57.5799 27.8565C54.8801 26.6043 52.606 24.3035 51.0449 21.3782C49.695 24.2356 46.9951 26.9504 44.4372 28.0669L42.9453 26.7434C46.7805 23.9573 48.7016 19.5695 48.7016 15.1816V9.60938H53.5336V15.1816L53.5302 15.1782Z" fill="#E60013"/>
<path d="M60.2805 18.3542H56.2307V16.0568H60.2805V9.08984H65.1126V28.9421H60.2805V18.3542Z" fill="#E60013"/>
<path d="M37.7727 7.57231C35.9935 5.82802 33.8752 4.52829 31.5665 3.7376C30.2719 2.18674 28.3024 1.19922 26.101 1.19922C23.8996 1.19922 21.93 2.19014 20.6355 3.7376C18.3268 4.52829 16.2119 5.82802 14.4293 7.57231C11.3106 10.6299 9.59375 14.692 9.59375 19.0154C9.59375 23.3388 11.3106 27.4008 14.4293 30.4584C17.548 33.516 21.6912 35.1992 26.101 35.1992C30.5107 35.1992 34.654 33.516 37.7727 30.4584C40.8914 27.4008 42.6082 23.3388 42.6082 19.0154C42.6082 14.692 40.8914 10.6299 37.7727 7.57231Z" fill="white"/>
<path d="M32.3192 5.03718C32.8245 5.98398 33.1084 7.06313 33.1084 8.183C33.1084 12.1263 30.0554 15.0549 26.0991 15.0549C22.1428 15.0549 19.0899 12.1263 19.0899 8.183C19.0899 7.06313 19.3772 5.9229 19.8791 5.03718C14.3651 7.38552 10.5195 12.7711 10.5195 19.039C10.5195 27.4618 17.5046 34.2896 26.0957 34.2896C34.6868 34.2896 41.6718 27.4618 41.6718 19.039C41.6718 12.7711 37.8262 7.38552 32.3123 5.03718H32.3192ZM26.1026 2.12891C22.8281 2.12891 20.194 4.67068 20.194 7.75202C20.194 9.54042 21.3155 10.7248 22.9631 10.8334C24.6765 10.942 26.0403 9.66938 26.106 7.88098C26.1718 6.33012 27.3141 5.06094 28.9824 5.06094C30.6508 5.06094 31.7065 6.37424 31.9488 7.94885C31.9488 7.99296 32.0353 7.99296 32.0353 7.94885C32.0561 4.65371 29.422 2.1323 26.1026 2.1323V2.12891ZM15.3585 19.3614C15.3585 20.6984 15.8639 22.0966 17.0927 22.8092L16.6081 23.2843C15.7739 22.8974 15.0712 22.1848 14.5866 21.2821C14.1678 22.1644 13.3336 23.006 12.5444 23.3488L12.0841 22.9382C13.2713 22.0762 13.8632 20.7188 13.8632 19.3614V17.6374H15.3585V19.3614ZM21.2463 18.6487C21.2463 19.0152 21.8174 19.358 22.8281 19.358C23.8388 19.358 24.41 19.0118 24.41 18.6487C24.41 18.3026 23.8596 17.9598 22.8281 17.9598C21.7966 17.9598 21.2463 18.306 21.2463 18.6487ZM25.9053 18.6487C25.9053 19.4903 24.763 19.962 22.8281 19.962C20.8932 19.962 19.751 19.4869 19.751 18.6487C19.751 17.875 20.8932 17.3558 22.8281 17.3558C24.763 17.3558 25.9053 17.8716 25.9053 18.6487ZM29.7509 20.9971C27.9925 20.9971 26.6979 20.2878 26.6979 19.2087C26.6979 18.1295 27.9925 17.444 29.7509 17.444C31.5092 17.444 32.8038 18.1533 32.8038 19.2087C32.8038 20.264 31.53 20.9971 29.7509 20.9971ZM29.7509 20.3726C30.6958 20.3726 31.3119 19.9213 31.3119 19.2087C31.3119 18.496 30.6958 18.0684 29.7509 18.0684C28.8059 18.0684 28.1898 18.5198 28.1898 19.2087C28.1898 19.8975 28.8059 20.3726 29.7509 20.3726ZM17.4457 20.3285H16.1927V19.6193H17.4457V17.4644H18.941V23.6033H17.4457V20.3285ZM20.3013 23.6033C20.0833 23.6033 19.9275 23.454 19.9275 23.2368V22.1169H24.2334V21.7945H19.9275V21.2142H22.0597V20.8274H19.5779V20.2233H26.0818V20.8274H23.6208V21.2142H25.7287V22.6803H21.4228V23.0026H25.7737V23.6067H20.3048L20.3013 23.6033ZM30.5193 22.0728V23.6033H28.9582V22.0728H26.5179V21.4484H32.9768V22.0728H30.5158H30.5193ZM38.9096 22.0728V23.6033H37.3728V22.0728H35.9882V23.6033H34.4514V22.0728H33.4614V21.4484H39.9203V22.0728H38.9096ZM36.6909 20.9971C34.9325 20.9971 33.638 20.2878 33.638 19.2087C33.638 18.1295 34.9325 17.444 36.6909 17.444C38.4492 17.444 39.7438 18.1533 39.7438 19.2087C39.7438 20.264 38.47 20.9971 36.6909 20.9971ZM36.6909 20.3726C37.6358 20.3726 38.2519 19.9213 38.2519 19.2087C38.2519 18.496 37.6358 18.0684 36.6909 18.0684C35.7459 18.0684 35.1298 18.5198 35.1298 19.2087C35.1298 19.8975 35.7459 20.3726 36.6909 20.3726Z" fill="#E60013"/>
</svg>
